<?xml version="1.0" encoding="iso-8859-1"?>
<!-- Generator: Adobe Illustrator 19.0.0, SVG Export Plug-In . SVG Version: 6.00 Build 0)  -->
<svg version="1.1" id="Layer_1" xmlns="http://www.w3.org/2000/svg" xmlns:xlink="http://www.w3.org/1999/xlink" x="0px" y="0px"
	 viewBox="0 0 512.853 512.853" style="enable-background:new 0 0 512.853 512.853;" xml:space="preserve">
<g transform="translate(1 1)">
	<path style="fill:#D0E8F9;" d="M255,417.56c-122.88,0-221.867-25.6-221.867-51.2v59.733c0,25.6,98.987,51.2,221.867,51.2
		s221.867-25.6,221.867-51.2V366.36C476.867,391.96,377.88,417.56,255,417.56L255,417.56z"/>
	<path style="fill:#0096E6;" d="M255,485.827c-95.573,0-230.4-18.773-230.4-59.733V366.36h17.067
		c0,14.507,82.773,42.667,213.333,42.667s213.333-28.16,213.333-42.667H485.4v59.733C485.4,467.053,350.573,485.827,255,485.827z
		 M41.667,389.4v36.693c0,14.507,82.773,42.667,213.333,42.667s213.333-28.16,213.333-42.667V389.4
		C431.64,412.44,342.04,426.093,255,426.093S78.36,412.44,41.667,389.4z"/>
	<path style="fill:#D0E8F9;" d="M75.8,395.373v59.733"/>
	<path style="fill:#0096E6;" d="M75.8,463.64c-5.12,0-8.533-3.413-8.533-8.533v-59.733c0-5.12,3.413-8.533,8.533-8.533
		c5.12,0,8.533,3.413,8.533,8.533v59.733C84.333,460.227,80.92,463.64,75.8,463.64z"/>
	<path style="fill:#D0E8F9;" d="M434.2,455.107v-59.733"/>
	<path style="fill:#0096E6;" d="M434.2,463.64c-5.12,0-8.533-3.413-8.533-8.533v-59.733c0-5.12,3.413-8.533,8.533-8.533
		c5.12,0,8.533,3.413,8.533,8.533v59.733C442.733,460.227,439.32,463.64,434.2,463.64z"/>
	<path style="fill:#D0E8F9;" d="M118.467,405.613v59.733"/>
	<path style="fill:#0096E6;" d="M118.467,473.88c-5.12,0-8.533-3.413-8.533-8.533v-59.733c0-5.12,3.413-8.533,8.533-8.533
		s8.533,3.413,8.533,8.533v59.733C127,470.467,123.587,473.88,118.467,473.88z"/>
	<path style="fill:#D0E8F9;" d="M391.533,465.347v-59.733"/>
	<path style="fill:#0096E6;" d="M391.533,473.88c-5.12,0-8.533-3.413-8.533-8.533v-59.733c0-5.12,3.413-8.533,8.533-8.533
		s8.533,3.413,8.533,8.533v59.733C400.067,470.467,396.653,473.88,391.533,473.88z"/>
	<path style="fill:#D0E8F9;" d="M161.133,412.44v59.733"/>
	<path style="fill:#0096E6;" d="M161.133,480.707c-5.12,0-8.533-3.413-8.533-8.533V412.44c0-5.12,3.413-8.533,8.533-8.533
		c5.12,0,8.533,3.413,8.533,8.533v59.733C169.667,476.44,166.253,480.707,161.133,480.707z"/>
	<path style="fill:#D0E8F9;" d="M348.867,472.173V412.44"/>
	<path style="fill:#0096E6;" d="M348.867,480.707c-5.12,0-8.533-3.413-8.533-8.533V412.44c0-5.12,3.413-8.533,8.533-8.533
		c5.12,0,8.533,3.413,8.533,8.533v59.733C357.4,476.44,353.987,480.707,348.867,480.707z"/>
	<path style="fill:#D0E8F9;" d="M203.8,415.853v59.733"/>
	<path style="fill:#0096E6;" d="M203.8,484.12c-5.12,0-8.533-3.413-8.533-8.533v-59.733c0-5.12,3.413-8.533,8.533-8.533
		c5.12,0,8.533,3.413,8.533,8.533v59.733C212.333,480.707,208.92,484.12,203.8,484.12z"/>
	<path style="fill:#D0E8F9;" d="M306.2,475.587v-59.733"/>
	<path style="fill:#0096E6;" d="M306.2,484.12c-5.12,0-8.533-3.413-8.533-8.533v-59.733c0-5.12,3.413-8.533,8.533-8.533
		s8.533,3.413,8.533,8.533v59.733C314.733,480.707,311.32,484.12,306.2,484.12z"/>
	<path style="fill:#D0E8F9;" d="M255,417.56v59.733"/>
	<path style="fill:#0096E6;" d="M255,485.827c-5.12,0-8.533-3.413-8.533-8.533V417.56c0-5.12,3.413-8.533,8.533-8.533
		s8.533,3.413,8.533,8.533v59.733C263.533,482.413,260.12,485.827,255,485.827z"/>
	<path style="fill:#D0E8F9;" d="M229.4,323.693c-122.88,0-221.867-25.6-221.867-51.2v59.733c0,25.6,98.987,51.2,221.867,51.2
		s221.867-25.6,221.867-51.2v-59.733C451.267,298.093,352.28,323.693,229.4,323.693L229.4,323.693z"/>
	<path style="fill:#0096E6;" d="M229.4,391.96C133.827,391.96-1,373.187-1,332.227v-59.733h17.067
		C16.067,287,98.84,315.16,229.4,315.16S442.733,287,442.733,272.493H459.8v59.733C459.8,373.187,324.973,391.96,229.4,391.96z
		 M16.067,295.533v36.693c0,14.507,82.773,42.667,213.333,42.667s213.333-28.16,213.333-42.667v-36.693
		c-36.693,23.04-126.293,36.693-213.333,36.693S52.76,318.573,16.067,295.533z"/>
	<path style="fill:#D0E8F9;" d="M50.2,301.507v59.733"/>
	<path style="fill:#0096E6;" d="M50.2,369.773c-5.12,0-8.533-3.413-8.533-8.533v-59.733c0-5.12,3.413-8.533,8.533-8.533
		s8.533,3.413,8.533,8.533v59.733C58.733,366.36,55.32,369.773,50.2,369.773z"/>
	<path style="fill:#D0E8F9;" d="M408.6,361.24v-59.733"/>
	<path style="fill:#0096E6;" d="M408.6,369.773c-5.12,0-8.533-3.413-8.533-8.533v-59.733c0-5.12,3.413-8.533,8.533-8.533
		c5.12,0,8.533,3.413,8.533,8.533v59.733C417.133,366.36,413.72,369.773,408.6,369.773z"/>
	<path style="fill:#D0E8F9;" d="M92.867,311.747v59.733"/>
	<path style="fill:#0096E6;" d="M92.867,380.013c-5.12,0-8.533-3.413-8.533-8.533v-59.733c0-5.12,3.413-8.533,8.533-8.533
		s8.533,3.413,8.533,8.533v59.733C101.4,376.6,97.987,380.013,92.867,380.013z"/>
	<path style="fill:#D0E8F9;" d="M365.933,371.48v-59.733"/>
	<path style="fill:#0096E6;" d="M365.933,380.013c-5.12,0-8.533-3.413-8.533-8.533v-59.733c0-5.12,3.413-8.533,8.533-8.533
		s8.533,3.413,8.533,8.533v59.733C374.467,376.6,371.053,380.013,365.933,380.013z"/>
	<path style="fill:#D0E8F9;" d="M135.533,318.573v59.733"/>
	<path style="fill:#0096E6;" d="M135.533,386.84c-5.12,0-8.533-3.413-8.533-8.533v-59.733c0-5.12,3.413-8.533,8.533-8.533
		s8.533,3.413,8.533,8.533v59.733C144.067,382.573,140.653,386.84,135.533,386.84z"/>
	<path style="fill:#D0E8F9;" d="M323.267,378.307v-59.733"/>
	<path style="fill:#0096E6;" d="M323.267,386.84c-5.12,0-8.533-3.413-8.533-8.533v-59.733c0-5.12,3.413-8.533,8.533-8.533
		c5.12,0,8.533,3.413,8.533,8.533v59.733C331.8,382.573,328.387,386.84,323.267,386.84z"/>
	<path style="fill:#D0E8F9;" d="M178.2,321.987v59.733"/>
	<path style="fill:#0096E6;" d="M178.2,390.253c-5.12,0-8.533-3.413-8.533-8.533v-59.733c0-5.12,3.413-8.533,8.533-8.533
		c5.12,0,8.533,3.413,8.533,8.533v59.733C186.733,386.84,183.32,390.253,178.2,390.253z"/>
	<path style="fill:#D0E8F9;" d="M280.6,381.72v-59.733"/>
	<path style="fill:#0096E6;" d="M280.6,390.253c-5.12,0-8.533-3.413-8.533-8.533v-59.733c0-5.12,3.413-8.533,8.533-8.533
		s8.533,3.413,8.533,8.533v59.733C289.133,386.84,285.72,390.253,280.6,390.253z"/>
	<path style="fill:#D0E8F9;" d="M229.4,323.693v59.733"/>
	<path style="fill:#0096E6;" d="M229.4,391.96c-5.12,0-8.533-3.413-8.533-8.533v-59.733c0-5.12,3.413-8.533,8.533-8.533
		c5.12,0,8.533,3.413,8.533,8.533v59.733C237.933,388.547,234.52,391.96,229.4,391.96z"/>
	<path style="fill:#D0E8F9;" d="M280.6,229.827c-122.88,0-221.867-25.6-221.867-51.2v59.733c0,25.6,98.987,51.2,221.867,51.2
		s221.867-25.6,221.867-51.2v-59.733C502.467,204.227,403.48,229.827,280.6,229.827L280.6,229.827z"/>
	<path style="fill:#0096E6;" d="M280.6,298.093c-95.573,0-230.4-18.773-230.4-59.733v-59.733h17.067
		c0,14.507,82.773,42.667,213.333,42.667s213.333-28.16,213.333-42.667H511v59.733C511,279.32,376.173,298.093,280.6,298.093z
		 M67.267,201.667v36.693c0,14.507,82.773,42.667,213.333,42.667s213.333-28.16,213.333-42.667v-36.693
		C457.24,224.707,367.64,238.36,280.6,238.36S103.96,224.707,67.267,201.667z"/>
	<path style="fill:#D0E8F9;" d="M101.4,207.64v59.733"/>
	<path style="fill:#0096E6;" d="M101.4,275.907c-5.12,0-8.533-3.413-8.533-8.533V207.64c0-5.12,3.413-8.533,8.533-8.533
		c5.12,0,8.533,3.413,8.533,8.533v59.733C109.933,272.493,106.52,275.907,101.4,275.907z"/>
	<path style="fill:#D0E8F9;" d="M459.8,267.373V207.64"/>
	<path style="fill:#0096E6;" d="M459.8,275.907c-5.12,0-8.533-3.413-8.533-8.533V207.64c0-5.12,3.413-8.533,8.533-8.533
		s8.533,3.413,8.533,8.533v59.733C468.333,272.493,464.92,275.907,459.8,275.907z"/>
	<path style="fill:#D0E8F9;" d="M144.067,217.88v59.733"/>
	<path style="fill:#0096E6;" d="M144.067,286.147c-5.12,0-8.533-3.413-8.533-8.533V217.88c0-5.12,3.413-8.533,8.533-8.533
		c5.12,0,8.533,3.413,8.533,8.533v59.733C152.6,282.733,149.187,286.147,144.067,286.147z"/>
	<path style="fill:#D0E8F9;" d="M417.133,277.613V217.88"/>
	<path style="fill:#0096E6;" d="M417.133,286.147c-5.12,0-8.533-3.413-8.533-8.533V217.88c0-5.12,3.413-8.533,8.533-8.533
		s8.533,3.413,8.533,8.533v59.733C425.667,282.733,422.253,286.147,417.133,286.147z"/>
	<path style="fill:#D0E8F9;" d="M186.733,224.707v59.733"/>
	<path style="fill:#0096E6;" d="M186.733,292.973c-5.12,0-8.533-3.413-8.533-8.533v-59.733c0-5.12,3.413-8.533,8.533-8.533
		c5.12,0,8.533,3.413,8.533,8.533v59.733C195.267,288.707,191.853,292.973,186.733,292.973z"/>
	<path style="fill:#D0E8F9;" d="M374.467,284.44v-59.733"/>
	<path style="fill:#0096E6;" d="M374.467,292.973c-5.12,0-8.533-3.413-8.533-8.533v-59.733c0-5.12,3.413-8.533,8.533-8.533
		c5.12,0,8.533,3.413,8.533,8.533v59.733C383,288.707,379.587,292.973,374.467,292.973z"/>
	<path style="fill:#D0E8F9;" d="M229.4,228.12v59.733"/>
	<path style="fill:#0096E6;" d="M229.4,296.387c-5.12,0-8.533-3.413-8.533-8.533V228.12c0-5.12,3.413-8.533,8.533-8.533
		c5.12,0,8.533,3.413,8.533,8.533v59.733C237.933,292.973,234.52,296.387,229.4,296.387z"/>
	<path style="fill:#D0E8F9;" d="M331.8,287.853V228.12"/>
	<path style="fill:#0096E6;" d="M331.8,296.387c-5.12,0-8.533-3.413-8.533-8.533V228.12c0-5.12,3.413-8.533,8.533-8.533
		s8.533,3.413,8.533,8.533v59.733C340.333,292.973,336.92,296.387,331.8,296.387z"/>
	<path style="fill:#D0E8F9;" d="M280.6,229.827v59.733"/>
	<path style="fill:#0096E6;" d="M280.6,298.093c-5.12,0-8.533-3.413-8.533-8.533v-59.733c0-5.12,3.413-8.533,8.533-8.533
		s8.533,3.413,8.533,8.533v59.733C289.133,294.68,285.72,298.093,280.6,298.093z"/>
	<path style="fill:#FFFFFF;" d="M451.267,77.08c0,25.6-98.987,50.347-221.867,50.347S7.533,103.533,7.533,77.08
		c0-25.6,98.987-43.52,221.867-43.52S451.267,51.48,451.267,77.08L451.267,77.08z"/>
	<path style="fill:#0096E6;" d="M229.4,135.96C117.613,135.96-1,115.48-1,77.08c0-50.347,206.507-52.053,230.4-52.053
		s230.4,1.707,230.4,52.053C459.8,115.48,341.187,135.96,229.4,135.96z M229.4,42.093C87.747,42.093,16.067,64.28,16.067,77.08
		c0,14.507,81.067,41.813,213.333,41.813S442.733,91.587,442.733,77.08C442.733,64.28,371.053,42.093,229.4,42.093z"/>
	<path style="fill:#D0E8F9;" d="M229.4,127.427c-122.88,0-221.867-25.6-221.867-51.2v59.733c0,25.6,98.987,51.2,221.867,51.2
		s221.867-25.6,221.867-51.2V76.227C451.267,101.827,352.28,127.427,229.4,127.427L229.4,127.427z"/>
	<path style="fill:#0096E6;" d="M229.4,195.693C133.827,195.693-1,176.92-1,135.96V76.227h17.067
		c0,14.507,82.773,42.667,213.333,42.667s213.333-28.16,213.333-42.667H459.8v59.733C459.8,176.92,324.973,195.693,229.4,195.693z
		 M16.067,99.267v36.693c0,14.507,82.773,42.667,213.333,42.667s213.333-28.16,213.333-42.667V99.267
		C406.04,122.307,316.44,135.96,229.4,135.96S52.76,122.307,16.067,99.267z"/>
	<path style="fill:#D0E8F9;" d="M50.2,105.24v59.733"/>
	<path style="fill:#0096E6;" d="M50.2,173.507c-5.12,0-8.533-3.413-8.533-8.533V105.24c0-5.12,3.413-8.533,8.533-8.533
		s8.533,3.413,8.533,8.533v59.733C58.733,170.093,55.32,173.507,50.2,173.507z"/>
	<path style="fill:#D0E8F9;" d="M408.6,164.973V105.24"/>
	<path style="fill:#0096E6;" d="M408.6,173.507c-5.12,0-8.533-3.413-8.533-8.533V105.24c0-5.12,3.413-8.533,8.533-8.533
		c5.12,0,8.533,3.413,8.533,8.533v59.733C417.133,170.093,413.72,173.507,408.6,173.507z"/>
	<path style="fill:#D0E8F9;" d="M92.867,115.48v59.733"/>
	<path style="fill:#0096E6;" d="M92.867,183.747c-5.12,0-8.533-3.413-8.533-8.533V115.48c0-5.12,3.413-8.533,8.533-8.533
		s8.533,3.413,8.533,8.533v59.733C101.4,180.333,97.987,183.747,92.867,183.747z"/>
	<path style="fill:#D0E8F9;" d="M365.933,175.213V115.48"/>
	<path style="fill:#0096E6;" d="M365.933,183.747c-5.12,0-8.533-3.413-8.533-8.533V115.48c0-5.12,3.413-8.533,8.533-8.533
		s8.533,3.413,8.533,8.533v59.733C374.467,180.333,371.053,183.747,365.933,183.747z"/>
	<path style="fill:#D0E8F9;" d="M135.533,122.307v59.733"/>
	<path style="fill:#0096E6;" d="M135.533,190.573c-5.12,0-8.533-3.413-8.533-8.533v-59.733c0-5.12,3.413-8.533,8.533-8.533
		s8.533,3.413,8.533,8.533v59.733C144.067,186.307,140.653,190.573,135.533,190.573z"/>
	<path style="fill:#D0E8F9;" d="M323.267,182.04v-59.733"/>
	<path style="fill:#0096E6;" d="M323.267,190.573c-5.12,0-8.533-3.413-8.533-8.533v-59.733c0-5.12,3.413-8.533,8.533-8.533
		c5.12,0,8.533,3.413,8.533,8.533v59.733C331.8,186.307,328.387,190.573,323.267,190.573z"/>
	<path style="fill:#D0E8F9;" d="M178.2,125.72v59.733"/>
	<path style="fill:#0096E6;" d="M178.2,193.987c-5.12,0-8.533-3.413-8.533-8.533V125.72c0-5.12,3.413-8.533,8.533-8.533
		c5.12,0,8.533,3.413,8.533,8.533v59.733C186.733,190.573,183.32,193.987,178.2,193.987z"/>
	<path style="fill:#D0E8F9;" d="M280.6,185.453V125.72"/>
	<path style="fill:#0096E6;" d="M280.6,193.987c-5.12,0-8.533-3.413-8.533-8.533V125.72c0-5.12,3.413-8.533,8.533-8.533
		s8.533,3.413,8.533,8.533v59.733C289.133,190.573,285.72,193.987,280.6,193.987z"/>
	<path style="fill:#D0E8F9;" d="M229.4,127.427v59.733"/>
	<path style="fill:#0096E6;" d="M229.4,195.693c-5.12,0-8.533-3.413-8.533-8.533v-59.733c0-5.12,3.413-8.533,8.533-8.533
		c5.12,0,8.533,3.413,8.533,8.533v59.733C237.933,192.28,234.52,195.693,229.4,195.693z"/>
	<path style="fill:#FFFFFF;" d="M444.44,344.173c-23.893,21.333-110.933,39.253-215.04,39.253
		c-81.067,0-151.893-11.093-191.147-26.453c-3.413,3.413-5.12,6.827-5.12,10.24c0,25.6,98.987,50.347,221.867,50.347
		s221.867-23.893,221.867-50.347C476.867,358.68,464.92,350.147,444.44,344.173L444.44,344.173z"/>
	<path style="fill:#0096E6;" d="M255,426.093c-111.787,0-230.4-20.48-230.4-58.88c0-5.973,2.56-11.093,8.533-16.213l4.267-3.413
		l4.267,1.707c40.96,15.36,112.64,25.6,187.733,25.6c108.373,0,188.587-19.627,209.92-37.547l3.413-3.413L447,335.64
		c25.6,8.533,38.4,18.773,38.4,31.573C485.4,405.613,366.787,426.093,255,426.093z M41.667,367.213
		c0,14.507,81.067,41.813,213.333,41.813s213.333-27.307,213.333-41.813c0-1.707-4.267-7.68-22.187-13.653
		c-31.573,22.187-120.32,38.4-216.747,38.4C156.013,391.96,85.187,382.573,41.667,367.213z"/>
	<path style="fill:#FFFFFF;" d="M280.6,289.56c-112.64,0-205.653-21.333-220.16-45.227c-33.28,7.68-52.907,17.92-52.907,29.013
		c0,25.6,98.987,50.347,221.867,50.347s221.867-23.893,221.867-50.347c0-0.853,0-2.56-0.853-3.413
		C410.307,281.88,348.867,289.56,280.6,289.56L280.6,289.56z"/>
	<path style="fill:#0096E6;" d="M229.4,332.227c-111.787,0-230.4-20.48-230.4-58.88c0-16.213,19.627-28.16,59.733-37.547
		l5.973-1.707l3.413,5.12c10.24,17.92,91.307,41.813,212.48,41.813c64,0,124.587-6.827,168.107-18.773l7.68-2.56l2.56,7.68
		c0.853,2.56,0.853,4.267,0.853,5.973C459.8,311.747,341.187,332.227,229.4,332.227z M57.027,253.72
		c-34.133,8.533-40.96,17.067-40.96,19.627c0,14.507,81.067,41.813,213.333,41.813c106.667,0,180.053-17.067,203.947-31.573
		c-41.813,9.387-96.427,14.507-152.747,14.507C174.787,298.093,82.627,279.32,57.027,253.72z"/>
	<path style="fill:#FFFFFF;" d="M442.733,148.76c-26.453,21.333-111.787,38.4-213.333,38.4c-65.707,0-124.587-6.827-164.693-17.92
		c-4.267,3.413-5.973,6.827-5.973,10.24c0,25.6,98.987,50.347,221.867,50.347s221.867-23.893,221.867-50.347
		C502.467,167.533,479.427,156.44,442.733,148.76L442.733,148.76z"/>
	<path style="fill:#0096E6;" d="M280.6,238.36c-111.787,0-230.4-20.48-230.4-58.88c0-5.973,2.56-11.947,8.533-17.067L62.147,159
		l4.267,0.853c42.667,11.093,101.547,17.92,162.987,17.92c104.96,0,185.173-18.773,208.213-35.84l3.413-2.56l4.267,0.853
		c45.227,9.387,66.56,22.187,66.56,39.253C511,217.88,392.387,238.36,280.6,238.36z M67.267,178.627v0.853
		c0,14.507,81.067,41.813,213.333,41.813s213.333-27.307,213.333-41.813c0-3.413-9.387-12.8-49.493-21.333
		c-32.427,22.187-119.467,37.547-215.04,37.547C169.667,195.693,110.787,189.72,67.267,178.627z"/>
</g>
<g>
</g>
<g>
</g>
<g>
</g>
<g>
</g>
<g>
</g>
<g>
</g>
<g>
</g>
<g>
</g>
<g>
</g>
<g>
</g>
<g>
</g>
<g>
</g>
<g>
</g>
<g>
</g>
<g>
</g>
</svg>
