<?xml version="1.0" encoding="iso-8859-1"?>
<!-- Generator: Adobe Illustrator 19.0.0, SVG Export Plug-In . SVG Version: 6.00 Build 0)  -->
<svg version="1.1" id="Layer_1" xmlns="http://www.w3.org/2000/svg" xmlns:xlink="http://www.w3.org/1999/xlink" x="0px" y="0px"
	 viewBox="0 0 512 512" style="enable-background:new 0 0 512 512;" xml:space="preserve">
<circle style="fill:#4AB8A1;" cx="256" cy="256" r="256"/>
<path style="fill:#43A691;" d="M503.904,320.108c-0.144-0.368-0.268-0.74-0.44-1.092c-0.232-0.684-0.5-1.364-0.82-2.04
	c-0.236-0.696-0.508-1.384-0.836-2.064c-0.228-0.68-0.5-1.36-0.82-2.036c-0.236-0.696-0.508-1.384-0.832-2.064
	c-0.232-0.684-0.504-1.364-0.824-2.044c-0.228-0.68-0.496-1.352-0.816-2.016c-0.232-0.704-0.508-1.404-0.84-2.088
	c-0.236-0.684-0.504-1.364-0.824-2.04c-0.232-0.692-0.508-1.38-0.832-2.06c-0.236-0.688-0.504-1.368-0.824-2.04
	c-0.232-0.696-0.508-1.384-0.832-2.064c-0.236-0.688-0.504-1.368-0.824-2.04c-0.232-0.696-0.508-1.384-0.832-2.064
	c-0.236-0.684-0.504-1.364-0.824-2.036c-0.232-0.696-0.508-1.388-0.832-2.068c-0.232-0.68-0.504-1.36-0.824-2.04
	c-0.232-0.688-0.504-1.372-0.828-2.048c-0.232-0.696-0.508-1.384-0.832-2.064c-0.232-0.688-0.504-1.368-0.82-2.04
	c-0.236-0.696-0.512-1.384-0.836-2.064c-0.228-0.676-0.492-1.344-0.812-2.008c-0.232-0.704-0.508-1.4-0.836-2.084
	c-0.236-0.688-0.508-1.368-0.828-2.044c-0.232-0.692-0.508-1.38-0.828-2.06c-0.236-0.684-0.508-1.364-0.828-2.04
	c-0.232-0.688-0.5-1.376-0.828-2.056c-0.232-0.692-0.508-1.38-0.828-2.06c-0.236-0.684-0.508-1.364-0.828-2.036
	c-0.232-0.696-0.508-1.384-0.828-2.064c-0.236-0.688-0.508-1.368-0.828-2.044c-0.228-0.692-0.508-1.38-0.828-2.06
	c-0.236-0.684-0.508-1.364-0.824-2.036c-0.232-0.696-0.512-1.384-0.832-2.064c-0.236-0.684-0.504-1.364-0.824-2.04
	c-0.232-0.688-0.504-1.372-0.828-2.048c-0.232-0.684-0.5-1.364-0.82-2.032c-0.232-0.696-0.504-1.388-0.832-2.072
	c-0.236-0.692-0.508-1.38-0.832-2.06c-0.232-0.684-0.504-1.364-0.824-2.036c-0.236-0.696-0.508-1.384-0.832-2.064
	c-0.232-0.684-0.504-1.364-0.824-2.04c-0.236-0.692-0.508-1.38-0.832-2.06c-0.232-0.684-0.504-1.364-0.824-2.036
	c-0.232-0.692-0.504-1.376-0.828-2.056c-0.232-0.692-0.508-1.38-0.832-2.06c-0.232-0.684-0.504-1.364-0.824-2.036
	c-0.232-0.696-0.508-1.384-0.832-2.064c-0.232-0.684-0.504-1.364-0.824-2.04c-0.232-0.692-0.508-1.38-0.828-2.06
	c-0.236-0.684-0.508-1.364-0.828-2.036c-0.232-0.696-0.508-1.384-0.828-2.064c-0.232-0.676-0.5-1.344-0.812-2.008
	c-0.236-0.704-0.508-1.396-0.836-2.084c-0.236-0.692-0.508-1.38-0.836-2.056c-0.232-0.688-0.5-1.368-0.82-2.044
	c-0.236-0.692-0.508-1.376-0.836-2.056c-0.232-0.688-0.5-1.368-0.82-2.044c-0.236-0.692-0.508-1.376-0.836-2.056
	c-0.228-0.688-0.5-1.368-0.82-2.044c-0.236-0.692-0.508-1.38-0.836-2.056c-0.228-0.688-0.5-1.368-0.82-2.04
	c-0.236-0.692-0.504-1.376-0.832-2.052c-0.232-0.688-0.504-1.372-0.828-2.048c-0.232-0.688-0.504-1.372-0.828-2.048
	c-0.232-0.688-0.504-1.372-0.828-2.048c-0.232-0.688-0.504-1.372-0.828-2.048c-0.224-0.676-0.492-1.348-0.812-2.016
	c-0.232-0.7-0.508-1.396-0.84-2.084c-0.228-0.688-0.504-1.372-0.828-2.048c-0.228-0.688-0.504-1.372-0.828-2.048
	c-0.228-0.688-0.504-1.372-0.828-2.048c-0.228-0.688-0.504-1.372-0.828-2.048c-0.228-0.688-0.5-1.372-0.828-2.048
	c-0.228-0.688-0.5-1.372-0.828-2.048c-0.228-0.688-0.5-1.372-0.828-2.048c-0.228-0.688-0.5-1.372-0.828-2.048
	c-0.228-0.688-0.5-1.368-0.82-2.044c-0.236-0.692-0.508-1.376-0.836-2.056c-0.228-0.688-0.5-1.372-0.828-2.048
	c-0.228-0.688-0.5-1.372-0.824-2.048c-0.232-0.688-0.504-1.372-0.828-2.048c-0.232-0.68-0.496-1.352-0.812-2.02
	c-0.232-0.7-0.508-1.392-0.84-2.08c-0.228-0.688-0.504-1.372-0.828-2.048c-0.228-0.688-0.504-1.372-0.828-2.048
	c-0.228-0.688-0.5-1.368-0.824-2.044c-0.232-0.692-0.504-1.376-0.832-2.056c-0.228-0.688-0.504-1.372-0.828-2.048
	c-0.228-0.688-0.504-1.372-0.828-2.048c-0.228-0.688-0.504-1.372-0.828-2.048c-0.228-0.688-0.504-1.372-0.828-2.048
	c-0.228-0.688-0.5-1.372-0.828-2.048c-0.228-0.688-0.5-1.372-0.828-2.048c-0.228-0.688-0.5-1.372-0.828-2.048
	c-0.228-0.688-0.5-1.372-0.828-2.048c-0.228-0.688-0.5-1.368-0.82-2.044c-0.232-0.68-0.5-1.356-0.816-2.024
	c-0.232-0.7-0.512-1.392-0.84-2.08c-0.228-0.688-0.508-1.372-0.828-2.048c-0.228-0.688-0.504-1.372-0.828-2.048
	c-0.228-0.688-0.504-1.372-0.828-2.048c-0.228-0.688-0.504-1.372-0.828-2.048c-0.228-0.688-0.504-1.372-0.828-2.048
	c-6.132-18.4-46.392-32.612-95.16-32.612c-53.024,0-96,16.788-96,37.5h-0.116v23.772c-7.568,5.36-11.884,11.52-11.884,18.076h-0.116
	v41.5c0,2.312,0.568,4.564,1.588,6.748c0.224,0.692,0.512,1.372,0.828,2.048c0.224,0.688,0.508,1.372,0.828,2.048
	c0.224,0.696,0.512,1.38,0.828,2.06c0.224,0.688,0.512,1.364,0.828,2.04c0.224,0.696,0.512,1.38,0.828,2.06
	c0.22,0.68,0.504,1.352,0.816,2.016c0.228,0.704,0.516,1.396,0.836,2.084c0.224,0.688,0.512,1.364,0.828,2.04
	c0.224,0.696,0.512,1.38,0.828,2.06c0.224,0.688,0.512,1.368,0.828,2.04c0.224,0.696,0.512,1.38,0.828,2.06
	c0.224,0.688,0.512,1.364,0.828,2.04c0.128,0.412,0.312,0.808,0.476,1.216v7.916v1.18c-11.64-1.96-24.464-3.052-37.944-3.052
	c-53.024,0-96,16.788-96,37.5c0,0.608,0.044,1.212,0.116,1.812v39.688c0,2.304,0.568,4.556,1.584,6.732
	c0.224,0.688,0.512,1.368,0.828,2.044c0.224,0.696,0.508,1.376,0.828,2.056c0.224,0.692,0.512,1.376,0.828,2.056
	c0.224,0.688,0.512,1.368,0.828,2.044c0.224,0.692,0.512,1.38,0.828,2.06c0.224,0.68,0.508,1.352,0.816,2.016
	c0.228,0.704,0.516,1.396,0.84,2.084c0.22,0.688,0.508,1.372,0.824,2.044c0.224,0.696,0.512,1.376,0.832,2.06
	c0.22,0.688,0.508,1.368,0.824,2.044c0.044,0.132,0.092,0.264,0.14,0.408C96.672,346.436,93,352.112,93,358.128
	c0,0.604,0.044,1.208,0.116,1.808v39.692c0,2.36,0.584,4.656,1.656,6.888c0.228,0.684,0.5,1.368,0.824,2.04
	c0.228,0.688,0.504,1.376,0.828,2.048c0.232,0.7,0.504,1.384,0.832,2.068c0.228,0.684,0.5,1.364,0.824,2.036
	c0.232,0.696,0.504,1.384,0.832,2.064c0.224,0.672,0.492,1.348,0.808,2.008c0.236,0.708,0.512,1.404,0.844,2.088
	c0.228,0.684,0.5,1.364,0.824,2.036c0.228,0.696,0.504,1.388,0.832,2.068c0.228,0.684,0.5,1.364,0.824,2.036
	c0.228,0.696,0.504,1.384,0.832,2.064c0.228,0.688,0.5,1.368,0.824,2.04c0.228,0.692,0.5,1.376,0.828,2.052
	c0.228,0.696,0.504,1.38,0.832,2.068c0.228,0.68,0.5,1.36,0.824,2.032c0.228,0.7,0.504,1.388,0.832,2.068
	c0.228,0.684,0.5,1.364,0.824,2.036c0.228,0.696,0.504,1.384,0.832,2.064c0.228,0.688,0.5,1.368,0.824,2.04
	c0.228,0.696,0.504,1.384,0.832,2.064c0.224,0.672,0.492,1.344,0.808,2.008c0.232,0.704,0.508,1.392,0.84,2.08
	c0.232,0.7,0.504,1.388,0.832,2.068c0.228,0.684,0.5,1.364,0.824,2.036c0.232,0.696,0.504,1.384,0.832,2.064
	c0.228,0.688,0.5,1.368,0.824,2.04c0.232,0.696,0.504,1.384,0.832,2.064c0.228,0.688,0.5,1.368,0.824,2.04
	c0.232,0.696,0.504,1.38,0.832,2.064c0.228,0.684,0.5,1.364,0.824,2.036c0.228,0.692,0.504,1.38,0.828,2.052
	c0.232,0.696,0.504,1.384,0.832,2.068c0.228,0.684,0.5,1.364,0.824,2.036c0.004,0.016,0.016,0.036,0.02,0.056
	C161.044,498.152,206.9,512,256,512C375.244,512,475.444,430.468,503.904,320.108z"/>
<path style="fill:#FFC066;" d="M418.916,385.584c0,20.712-43.1,37-96.116,37c-53.024,0-95.88-16.288-95.88-37v-41.5h192v41.5
	H418.916z"/>
<g>
	<path style="fill:#F2B155;" d="M419.032,344.084c0,20.712-43.1,38.5-96.116,38.5c-53.024,0-95.884-17.788-95.884-38.5
		c0-20.716,42.976-37.5,96-37.5C376.048,306.584,419.032,323.372,419.032,344.084z"/>
	<path style="fill:#F2B155;" d="M386.916,380.908c-2.588,0.876-5.252,1.704-8,2.46v24.016c2.82-0.828,5.524-1.696,8-2.616V380.908z"
		/>
	<path style="fill:#F2B155;" d="M362.916,387.008c-2.64,0.476-5.296,0.92-8,1.312v24.092c2.756-0.388,5.42-0.804,8-1.28V387.008z"/>
	<path style="fill:#F2B155;" d="M330.916,414.42c2.74-0.084,5.384-0.228,8-0.396V390c-2.664,0.188-5.328,0.328-8,0.42V414.42z"/>
	<path style="fill:#F2B155;" d="M290.916,388.308c-2.704-0.388-5.368-0.836-8-1.32v24.172c2.576,0.472,5.248,0.896,8,1.276V388.308z
		"/>
	<path style="fill:#F2B155;" d="M242.916,396.632v-22.524c-2.884-1.524-5.564-3.136-8-4.844v16.312
		C234.916,389.048,237.736,392.9,242.916,396.632z"/>
	<path style="fill:#F2B155;" d="M258.916,404.788c2.476,0.916,5.172,1.788,8,2.616V383.32c-2.752-0.76-5.416-1.588-8-2.476V404.788z
		"/>
	<path style="fill:#F2B155;" d="M402.916,396.616c5.18-3.74,8-7.584,8-11.04v-16.172c-2.444,1.696-5.124,3.292-8,4.796V396.616z"/>
	<path style="fill:#F2B155;" d="M314.916,390.42c-2.672-0.092-5.344-0.244-8-0.424v24.044c2.608,0.168,5.264,0.304,8,0.392V390.42z"
		/>
</g>
<path style="fill:#FFC066;" d="M410.916,337.728c0,20.712-43.1,37-96.116,37c-53.024,0-95.88-16.288-95.88-37v-41.5h192v41.5
	H410.916z"/>
<g>
	<path style="fill:#F2B155;" d="M411.032,296.228c0,20.712-43.1,38.5-96.116,38.5c-53.024,0-95.884-17.788-95.884-38.5
		s42.976-37.5,96-37.5C368.048,258.728,411.032,275.516,411.032,296.228z"/>
	<path style="fill:#F2B155;" d="M378.916,333.048c-2.588,0.876-5.252,1.704-8,2.464v24.016c2.82-0.832,5.524-1.696,8-2.612V333.048z
		"/>
	<path style="fill:#F2B155;" d="M354.916,339.148c-2.64,0.484-5.296,0.928-8,1.316v24.096c2.756-0.388,5.42-0.812,8-1.28V339.148z"
		/>
	<path style="fill:#F2B155;" d="M322.916,366.572c2.74-0.084,5.384-0.228,8-0.4v-24.028c-2.664,0.184-5.328,0.332-8,0.424V366.572z"
		/>
	<path style="fill:#F2B155;" d="M282.916,340.452c-2.704-0.392-5.368-0.836-8-1.32v24.172c2.576,0.468,5.248,0.896,8,1.272V340.452z
		"/>
	<path style="fill:#F2B155;" d="M234.916,348.78v-22.532c-2.884-1.516-5.564-3.132-8-4.844v16.32
		C226.916,341.188,229.736,345.04,234.916,348.78z"/>
	<path style="fill:#F2B155;" d="M250.916,356.928c2.476,0.92,5.172,1.788,8,2.624v-24.084c-2.752-0.768-5.416-1.6-8-2.48
		L250.916,356.928L250.916,356.928z"/>
	<path style="fill:#F2B155;" d="M394.916,348.764c5.18-3.74,8-7.584,8-11.04v-16.172c-2.444,1.688-5.124,3.284-8,4.792V348.764z"/>
	<path style="fill:#F2B155;" d="M306.916,342.572c-2.672-0.088-5.344-0.244-8-0.424v24.048c2.608,0.164,5.264,0.304,8,0.388V342.572
		z"/>
</g>
<path style="fill:#FFC066;" d="M418.916,289.892c0,20.712-43.1,37-96.116,37c-53.024,0-95.88-16.288-95.88-37v-41.5h192v41.5
	H418.916z"/>
<g>
	<path style="fill:#F2B155;" d="M419.032,248.392c0,20.708-43.1,38.5-96.116,38.5c-53.024,0-95.884-17.788-95.884-38.5
		s42.976-37.5,96-37.5C376.048,210.892,419.032,227.68,419.032,248.392z"/>
	<path style="fill:#F2B155;" d="M386.916,285.212c-2.588,0.876-5.252,1.704-8,2.464v24.016c2.82-0.832,5.524-1.696,8-2.612V285.212z
		"/>
	<path style="fill:#F2B155;" d="M362.916,291.312c-2.64,0.484-5.296,0.928-8,1.316v24.096c2.756-0.388,5.42-0.812,8-1.28V291.312z"
		/>
	<path style="fill:#F2B155;" d="M330.916,318.736c2.74-0.084,5.384-0.228,8-0.4v-24.028c-2.664,0.184-5.328,0.332-8,0.424V318.736z"
		/>
	<path style="fill:#F2B155;" d="M290.916,292.616c-2.704-0.392-5.368-0.836-8-1.32v24.172c2.576,0.468,5.248,0.896,8,1.272V292.616z
		"/>
	<path style="fill:#F2B155;" d="M242.916,300.944v-22.532c-2.884-1.516-5.564-3.132-8-4.844v16.32
		C234.916,293.352,237.736,297.204,242.916,300.944z"/>
	<path style="fill:#F2B155;" d="M258.916,309.092c2.476,0.92,5.172,1.788,8,2.624v-24.084c-2.752-0.768-5.416-1.6-8-2.48V309.092z"
		/>
	<path style="fill:#F2B155;" d="M402.916,300.928c5.18-3.74,8-7.584,8-11.04V273.72c-2.444,1.696-5.124,3.288-8,4.796V300.928z"/>
	<path style="fill:#F2B155;" d="M314.916,294.736c-2.672-0.088-5.344-0.244-8-0.424v24.048c2.608,0.164,5.264,0.304,8,0.388V294.736
		z"/>
</g>
<path style="fill:#FFC066;" d="M418.916,242.056c0,20.708-43.1,37-96.116,37c-53.024,0-95.88-16.288-95.88-37v-41.5h192v41.5
	H418.916z"/>
<g>
	<path style="fill:#F2B155;" d="M419.032,200.556c0,20.712-43.1,38.5-96.116,38.5c-53.024,0-95.884-17.788-95.884-38.5
		s42.976-37.5,96-37.5C376.048,163.056,419.032,179.844,419.032,200.556z"/>
	<path style="fill:#F2B155;" d="M386.916,237.376c-2.588,0.876-5.252,1.704-8,2.464v24.016c2.82-0.832,5.524-1.696,8-2.612V237.376z
		"/>
	<path style="fill:#F2B155;" d="M362.916,243.476c-2.64,0.484-5.296,0.928-8,1.316v24.096c2.756-0.388,5.42-0.812,8-1.28V243.476z"
		/>
	<path style="fill:#F2B155;" d="M330.916,270.9c2.74-0.084,5.384-0.228,8-0.4v-24.028c-2.664,0.184-5.328,0.332-8,0.424V270.9z"/>
	<path style="fill:#F2B155;" d="M290.916,244.78c-2.704-0.388-5.368-0.836-8-1.32v24.172c2.576,0.468,5.248,0.896,8,1.272V244.78z"
		/>
	<path style="fill:#F2B155;" d="M242.916,253.108V230.58c-2.884-1.516-5.564-3.132-8-4.844v16.32
		C234.916,245.516,237.736,249.368,242.916,253.108z"/>
	<path style="fill:#F2B155;" d="M258.916,261.256c2.476,0.92,5.172,1.788,8,2.62v-24.08c-2.752-0.768-5.416-1.6-8-2.48V261.256z"/>
	<path style="fill:#F2B155;" d="M402.916,253.092c5.18-3.736,8-7.58,8-11.04v-16.168c-2.444,1.692-5.124,3.288-8,4.796V253.092z"/>
	<path style="fill:#F2B155;" d="M314.916,246.9c-2.672-0.092-5.344-0.244-8-0.428v24.048c2.608,0.164,5.264,0.304,8,0.388V246.9z"/>
</g>
<path style="fill:#FFC066;" d="M406.916,196.208c0,20.712-43.1,37-96.116,37c-53.02,0-95.88-16.288-95.88-37v-41.5h192v41.5H406.916
	z"/>
<path style="fill:#FFDC80;" d="M407.032,154.708c0,20.712-43.1,38.5-96.116,38.5c-53.024,0-95.884-17.788-95.884-38.5
	s42.976-37.5,96-37.5C364.048,117.208,407.032,133.996,407.032,154.708z"/>
<path style="fill:#F2B255;" d="M391.336,154.708c0,14.084-36.072,26.5-80.42,26.5s-80.188-12.416-80.188-26.5
	s35.952-25.5,80.304-25.5S391.336,140.624,391.336,154.708z"/>
<path style="fill:#E6A951;" d="M234.916,158.708c0-14.084,35.952-25.5,80.304-25.5c33.008,0,61.336,6.328,73.68,15.368
	c-8.656-11.116-40.188-19.368-77.868-19.368c-44.352,0-80.304,11.416-80.304,25.5c0,3.656,2.452,7.188,6.796,10.428
	C235.884,163.06,234.916,160.908,234.916,158.708z"/>
<g>
	<path style="fill:#F2B155;" d="M374.916,191.528c-2.588,0.876-5.252,1.7-8,2.464v24.016c2.82-0.828,5.524-1.696,8-2.616V191.528z"
		/>
	<path style="fill:#F2B155;" d="M350.916,197.632c-2.64,0.48-5.296,0.928-8,1.316v24.096c2.756-0.388,5.42-0.808,8-1.284V197.632z"
		/>
	<path style="fill:#F2B155;" d="M318.916,225.052c2.74-0.084,5.384-0.228,8-0.396v-24.032c-2.664,0.188-5.328,0.328-8,0.416V225.052
		z"/>
	<path style="fill:#F2B155;" d="M278.916,198.932c-2.704-0.388-5.368-0.836-8-1.32v24.172c2.576,0.472,5.248,0.896,8,1.276V198.932z
		"/>
	<path style="fill:#F2B155;" d="M230.916,207.256v-22.524c-2.884-1.52-5.564-3.136-8-4.844v16.32
		C222.916,199.668,225.736,203.524,230.916,207.256z"/>
	<path style="fill:#F2B155;" d="M246.916,215.416c2.476,0.92,5.172,1.788,8,2.616v-24.076c-2.752-0.768-5.416-1.596-8-2.48V215.416z
		"/>
	<path style="fill:#F2B155;" d="M390.916,207.244c5.18-3.736,8-7.576,8-11.036v-16.172c-2.444,1.692-5.124,3.292-8,4.8V207.244z"/>
	<path style="fill:#F2B155;" d="M302.916,201.048c-2.672-0.092-5.344-0.24-8-0.424v24.044c2.608,0.168,5.264,0.304,8,0.392V201.048z
		"/>
</g>
<path style="fill:#FFC066;" d="M418.916,154.36c0,20.712-43.1,37-96.116,37c-53.024,0-95.88-16.288-95.88-37v-41.5h192v41.5H418.916
	z"/>
<path style="fill:#FFDC80;" d="M419.032,112.86c0,20.712-43.1,38.5-96.116,38.5c-53.024,0-95.884-17.788-95.884-38.5
	s42.976-37.5,96-37.5C376.048,75.36,419.032,92.148,419.032,112.86z"/>
<path style="fill:#FFC066;" d="M403.336,112.86c0,14.084-36.072,26.5-80.42,26.5s-80.188-12.416-80.188-26.5
	s35.952-25.5,80.304-25.5S403.336,98.776,403.336,112.86z"/>
<g>
	<path style="fill:#F2B155;" d="M246.916,116.86c0-14.084,35.952-25.5,80.304-25.5c33.008,0,61.336,6.328,73.68,15.368
		c-8.656-11.116-40.188-19.368-77.868-19.368c-44.352,0-80.304,11.416-80.304,25.5c0,3.656,2.452,7.188,6.796,10.428
		C247.884,121.212,246.916,119.06,246.916,116.86z"/>
	<path style="fill:#F2B155;" d="M386.916,149.68c-2.588,0.876-5.252,1.7-8,2.464v24.016c2.82-0.832,5.524-1.696,8-2.616V149.68z"/>
	<path style="fill:#F2B155;" d="M362.916,155.784c-2.64,0.48-5.296,0.928-8,1.316v24.096c2.756-0.384,5.42-0.812,8-1.284V155.784z"
		/>
	<path style="fill:#F2B155;" d="M330.916,183.204c2.74-0.084,5.384-0.228,8-0.396V158.78c-2.664,0.184-5.328,0.332-8,0.424V183.204z
		"/>
	<path style="fill:#F2B155;" d="M290.916,157.084c-2.704-0.388-5.368-0.836-8-1.32v24.172c2.576,0.472,5.248,0.896,8,1.276V157.084z
		"/>
	<path style="fill:#F2B155;" d="M242.916,165.412v-22.528c-2.884-1.52-5.564-3.136-8-4.844v16.32
		C234.916,157.824,237.736,161.672,242.916,165.412z"/>
	<path style="fill:#F2B155;" d="M258.916,173.564c2.476,0.924,5.172,1.792,8,2.62v-24.08c-2.752-0.768-5.416-1.596-8-2.48V173.564z"
		/>
	<path style="fill:#F2B155;" d="M402.916,165.396c5.18-3.736,8-7.58,8-11.036v-16.172c-2.444,1.692-5.124,3.292-8,4.8V165.396z"/>
	<path style="fill:#F2B155;" d="M314.916,159.2c-2.672-0.092-5.344-0.24-8-0.428v24.044c2.608,0.168,5.264,0.304,8,0.388V159.2z"/>
	<path style="fill:#F2B155;" d="M293.084,296.072v-23.768h-0.116c0-16.624-27.704-30.716-66.052-35.628v5.388
		c0,1.172,0.156,2.328,0.424,3.468c-0.184,0.948-0.308,1.904-0.308,2.868h-0.116v32.944c-5.064,4.568-7.884,9.596-7.884,14.896
		h-0.116v41.5c0,5.336,2.868,10.376,8,14.92v32.928c0,14.64,21.428,27.064,52.716,33.084c8.54-5.532,13.452-12.028,13.452-19.032
		v-25.944c7.636-5.316,12-11.46,12-18.056v-41.5h-0.116C304.968,307.584,300.648,301.42,293.084,296.072z"/>
</g>
<path style="fill:#FFC066;" d="M93.088,399.64c0,20.712,43.092,37,96.116,37c53.016,0,95.884-16.288,95.884-37v-41.5h-192
	L93.088,399.64L93.088,399.64z"/>
<path style="fill:#FFDC80;" d="M92.968,358.14c0,20.712,43.092,38.5,96.116,38.5c53.016,0,95.884-17.788,95.884-38.5
	s-42.984-37.5-96-37.5C135.948,320.64,92.968,337.428,92.968,358.14z"/>
<path style="fill:#F2B255;" d="M108.664,358.14c0,14.084,36.072,26.5,80.42,26.5s80.188-12.416,80.188-26.5
	c0-14.08-35.952-25.5-80.308-25.5C144.616,332.64,108.664,344.064,108.664,358.14z"/>
<path style="fill:#E6A951;" d="M265.084,362.14c0-14.08-35.952-25.5-80.304-25.5c-33.008,0-61.336,6.328-73.688,15.376
	c8.664-11.116,40.188-19.376,77.876-19.376c44.352,0,80.304,11.42,80.304,25.5c0,3.656-2.448,7.188-6.804,10.428
	C264.116,366.492,265.084,364.344,265.084,362.14z"/>
<path style="fill:#FFC066;" d="M105.088,355.64c0,20.712,43.092,37,96.116,37c53.016,0,95.884-16.288,95.884-37v-41.5h-192
	L105.088,355.64L105.088,355.64z"/>
<path style="fill:#F2B155;" d="M104.968,314.14c0,20.712,43.092,38.5,96.116,38.5c53.016,0,95.884-17.788,95.884-38.5
	s-42.984-37.5-96-37.5C147.948,276.64,104.968,293.428,104.968,314.14z"/>
<path style="fill:#F2B255;" d="M120.664,314.14c0,14.084,36.072,26.5,80.42,26.5s80.188-12.416,80.188-26.5
	c0-14.08-35.952-25.5-80.308-25.5C156.616,288.64,120.664,300.064,120.664,314.14z"/>
<path style="fill:#E6A951;" d="M277.084,318.14c0-14.08-35.952-25.5-80.304-25.5c-33.008,0-61.336,6.328-73.688,15.376
	c8.664-11.116,40.188-19.376,77.876-19.376c44.352,0,80.304,11.42,80.304,25.5c0,3.656-2.448,7.188-6.804,10.428
	C276.116,322.492,277.084,320.344,277.084,318.14z"/>
<g>
	<path style="fill:#F2B155;" d="M125.088,394.968c2.584,0.876,5.252,1.696,8,2.46v24.016c-2.828-0.828-5.532-1.696-8-2.616V394.968z
		"/>
	<path style="fill:#F2B155;" d="M149.088,401.072c2.632,0.476,5.296,0.92,8,1.312v24.092c-2.756-0.384-5.428-0.804-8-1.28V401.072z"
		/>
	<path style="fill:#F2B155;" d="M181.088,428.484c-2.736-0.084-5.392-0.228-8-0.392V404.06c2.656,0.188,5.328,0.328,8,0.416V428.484
		z"/>
	<path style="fill:#F2B155;" d="M221.088,402.368c2.704-0.384,5.36-0.836,8-1.32v24.172c-2.58,0.476-5.244,0.9-8,1.28V402.368z"/>
	<path style="fill:#F2B155;" d="M269.084,410.696v-22.524c2.884-1.524,5.564-3.14,8-4.844v16.312
		C277.084,403.108,274.264,406.96,269.084,410.696z"/>
	<path style="fill:#F2B155;" d="M253.088,418.852c-2.476,0.92-5.18,1.788-8,2.616v-24.08c2.744-0.764,5.408-1.592,8-2.476V418.852z"
		/>
	<path style="fill:#F2B155;" d="M109.088,410.68c-5.18-3.736-8-7.58-8-11.04v-16.172c2.436,1.696,5.116,3.296,8,4.796V410.68z"/>
	<path style="fill:#F2B155;" d="M197.088,404.484c2.672-0.092,5.336-0.244,8-0.428v24.048c-2.616,0.164-5.264,0.304-8,0.396V404.484
		z"/>
	<path style="fill:#F2B155;" d="M137.088,350.968c2.584,0.876,5.252,1.696,8,2.46v24.016c-2.828-0.828-5.532-1.696-8-2.616V350.968z
		"/>
	<path style="fill:#F2B155;" d="M161.088,357.072c2.632,0.476,5.296,0.92,8,1.312v24.092c-2.756-0.384-5.428-0.804-8-1.28V357.072z"
		/>
	<path style="fill:#F2B155;" d="M193.088,384.484c-2.736-0.084-5.392-0.228-8-0.392V360.06c2.656,0.188,5.328,0.328,8,0.416V384.484
		z"/>
	<path style="fill:#F2B155;" d="M233.088,358.368c2.704-0.384,5.36-0.836,8-1.32v24.172c-2.58,0.476-5.244,0.9-8,1.28V358.368z"/>
	<path style="fill:#F2B155;" d="M281.084,366.696v-22.524c2.884-1.524,5.564-3.14,8-4.844v16.312
		C289.084,359.108,286.264,362.96,281.084,366.696z"/>
	<path style="fill:#F2B155;" d="M265.084,374.852c-2.476,0.92-5.18,1.788-8,2.616v-24.08c2.744-0.764,5.408-1.592,8-2.476V374.852z"
		/>
	<path style="fill:#F2B155;" d="M121.088,366.68c-5.18-3.736-8-7.58-8-11.04v-16.172c2.436,1.696,5.116,3.296,8,4.796V366.68z"/>
	<path style="fill:#F2B155;" d="M209.088,360.484c2.672-0.092,5.336-0.244,8-0.428v24.048c-2.616,0.164-5.264,0.304-8,0.396V360.484
		z"/>
</g>
<path style="fill:#FFC066;" d="M93.088,313.796c0,20.712,43.092,37,96.116,37c53.016,0,95.884-16.288,95.884-37v-41.5h-192
	L93.088,313.796L93.088,313.796z"/>
<path style="fill:#FFDC80;" d="M92.968,272.296c0,20.712,43.092,38.5,96.116,38.5c53.016,0,95.884-17.788,95.884-38.5
	s-42.984-37.5-96-37.5C135.948,234.796,92.968,251.584,92.968,272.296z"/>
<path style="fill:#FFC066;" d="M108.664,272.296c0,14.084,36.072,26.5,80.42,26.5s80.188-12.416,80.188-26.5
	s-35.952-25.5-80.308-25.5C144.616,246.796,108.664,258.212,108.664,272.296z"/>
<g>
	<path style="fill:#F2B155;" d="M120.664,272.296c0-13.444,32.764-24.424,74.304-25.404c-1.988-0.048-3.976-0.096-6-0.096
		c-44.352,0-80.304,11.416-80.304,25.5c0,14.084,36.072,26.5,80.42,26.5c2.024,0,4.012-0.056,6-0.104
		C153.536,297.632,120.664,285.736,120.664,272.296z"/>
	<path style="fill:#F2B155;" d="M125.088,309.116c2.584,0.876,5.252,1.704,8,2.46v24.016c-2.828-0.828-5.532-1.696-8-2.616V309.116z
		"/>
	<path style="fill:#F2B155;" d="M149.088,315.22c2.632,0.484,5.296,0.928,8,1.312v24.1c-2.756-0.384-5.428-0.812-8-1.28V315.22z"/>
	<path style="fill:#F2B155;" d="M181.088,342.64c-2.736-0.084-5.392-0.228-8-0.4v-24.036c2.656,0.192,5.328,0.336,8,0.428V342.64z"
		/>
	<path style="fill:#F2B155;" d="M221.088,316.524c2.704-0.392,5.36-0.836,8-1.32v24.172c-2.58,0.468-5.244,0.892-8,1.272V316.524z"
		/>
	<path style="fill:#F2B155;" d="M269.084,324.852V302.32c2.884-1.516,5.564-3.132,8-4.844v16.32
		C277.084,317.256,274.264,321.108,269.084,324.852z"/>
	<path style="fill:#F2B155;" d="M253.088,333c-2.476,0.92-5.18,1.788-8,2.624V311.54c2.744-0.768,5.408-1.596,8-2.48V333z"/>
	<path style="fill:#F2B155;" d="M109.088,324.836c-5.18-3.736-8-7.58-8-11.04v-16.172c2.436,1.688,5.116,3.288,8,4.796V324.836z"/>
	<path style="fill:#F2B155;" d="M197.088,318.64c2.672-0.092,5.336-0.244,8-0.428v24.048c-2.616,0.164-5.264,0.304-8,0.388V318.64z"
		/>
</g>
<g>
</g>
<g>
</g>
<g>
</g>
<g>
</g>
<g>
</g>
<g>
</g>
<g>
</g>
<g>
</g>
<g>
</g>
<g>
</g>
<g>
</g>
<g>
</g>
<g>
</g>
<g>
</g>
<g>
</g>
</svg>
